<?xml version="1.0" encoding="iso-8859-1"?>
<!-- Generator: Adobe Illustrator 19.0.0, SVG Export Plug-In . SVG Version: 6.00 Build 0)  -->
<svg version="1.1" id="Capa_1" xmlns="http://www.w3.org/2000/svg" xmlns:xlink="http://www.w3.org/1999/xlink" x="0px" y="0px"
	 viewBox="0 0 490 490" style="enable-background:new 0 0 490 490;" xml:space="preserve">
<g>
	<path d="M245,490C109.906,490,0,380.094,0,245S109.906,0,245,0s245,109.906,245,245S380.094,490,245,490z M245,20.851
		C121.405,20.851,20.851,121.405,20.851,245S121.405,469.149,245,469.149S469.149,368.595,469.149,245S368.595,20.851,245,20.851z"
		/>
	<path d="M245,433.729c-24.501,0-53.706-16.825-53.706-96.987c0-54.943,15.756-157.559,53.706-157.559
		s53.706,102.616,53.706,157.559C298.706,416.905,269.501,433.729,245,433.729z M245,200.035
		c-10.818,0.565-32.855,64.203-32.855,136.708c0,28.437,4.266,76.136,32.855,76.136s32.855-47.699,32.855-76.136
		C277.855,264.283,255.818,200.626,245,200.035z"/>
	<path d="M245,150.28c-25.921,0-47.007-21.086-47.007-47.007c0-25.917,21.086-47.001,47.007-47.001
		c25.916,0,47.002,21.085,47.002,47.001C292.002,129.194,270.916,150.28,245,150.28z M245,77.123
		c-14.422,0-26.156,11.729-26.156,26.15s11.734,26.156,26.156,26.156c14.422,0,26.15-11.734,26.15-26.156S259.422,77.123,245,77.123
		z"/>
</g>
<g>
</g>
<g>
</g>
<g>
</g>
<g>
</g>
<g>
</g>
<g>
</g>
<g>
</g>
<g>
</g>
<g>
</g>
<g>
</g>
<g>
</g>
<g>
</g>
<g>
</g>
<g>
</g>
<g>
</g>
</svg>
